<svg width="36" height="36" viewBox="0 0 36 36" fill="none" xmlns="http://www.w3.org/2000/svg">
<path d="M32.9999 12.51V23.49C32.9999 25.74 30.5549 27.15 28.6049 26.025L23.8499 23.295L19.095 20.5501C18.795 20.3701 18.5549 20.175 18.3599 19.935V16.0951C18.5549 15.8551 18.795 15.66 19.095 15.48L23.8499 12.735L28.6049 10.0051C30.5549 8.85006 32.9999 10.26 32.9999 12.51Z" stroke="white" stroke-width="1.5" stroke-linecap="round" stroke-linejoin="round"/>
<path d="M18.3599 12.51V23.49C18.3599 25.74 15.9149 27.15 13.9649 26.025L9.20995 23.295L4.45493 20.5501C2.50493 19.4251 2.50493 16.62 4.45493 15.48L9.20995 12.735L13.9649 10.0051C15.9149 8.85006 18.3599 10.26 18.3599 12.51Z" stroke="white" stroke-width="1.5" stroke-linecap="round" stroke-linejoin="round"/>
</svg>
