<svg width="36" height="36" viewBox="0 0 36 36" fill="none" xmlns="http://www.w3.org/2000/svg">
<path d="M3 12.51V23.49C3 25.74 5.44499 27.15 7.39499 26.025L12.15 23.295L16.905 20.5501C17.205 20.3701 17.445 20.175 17.64 19.935V16.0951C17.445 15.8551 17.205 15.66 16.905 15.48L12.15 12.735L7.39499 10.0051C5.44499 8.85006 3 10.26 3 12.51Z" stroke="white" stroke-width="1.5" stroke-linecap="round" stroke-linejoin="round"/>
<path d="M17.64 12.51V23.49C17.64 25.74 20.085 27.15 22.035 26.025L26.79 23.295L31.545 20.5501C33.495 19.4251 33.495 16.62 31.545 15.48L26.79 12.735L22.035 10.0051C20.085 8.85006 17.64 10.26 17.64 12.51Z" stroke="white" stroke-width="1.5" stroke-linecap="round" stroke-linejoin="round"/>
</svg>
