<svg width="25" height="26" viewBox="0 0 25 26" fill="none" xmlns="http://www.w3.org/2000/svg">
<g clip-path="url(#clip0_130_311)">
<path fill-rule="evenodd" clip-rule="evenodd" d="M20.0893 10.3214C22.8014 10.3214 25 8.12282 25 5.41071C25 2.69861 22.8014 0.5 20.0893 0.5C17.3772 0.5 15.1786 2.69861 15.1786 5.41071C15.1786 5.4888 15.1804 5.56646 15.184 5.64366L8.04027 9.21552C7.19055 8.51205 6.1 8.08929 4.91071 8.08929C2.19861 8.08929 0 10.2879 0 13C0 15.7121 2.19861 17.9107 4.91071 17.9107C6.1 17.9107 7.19055 17.4879 8.04027 16.7845L15.184 20.3564C15.1804 20.4336 15.1786 20.5112 15.1786 20.5893C15.1786 23.3014 17.3772 25.5 20.0893 25.5C22.8014 25.5 25 23.3014 25 20.5893C25 17.8772 22.8014 15.6786 20.0893 15.6786C18.7459 15.6786 17.5284 16.2181 16.6417 17.0922L9.77745 13.6601C9.80645 13.4442 9.82143 13.2238 9.82143 13C9.82143 12.7762 9.80645 12.5558 9.77745 12.3399L16.6417 8.90777C17.5284 9.78193 18.7459 10.3214 20.0893 10.3214Z" fill="white"/>
</g>
<defs>
<clipPath id="clip0_130_311">
<rect width="25" height="25" fill="white" transform="translate(0 0.5)"/>
</clipPath>
</defs>
</svg>
