<svg width="96" height="26" viewBox="0 0 96 26" fill="none" xmlns="http://www.w3.org/2000/svg">
<rect x="0.5" y="0.5" width="95" height="25" stroke="white"/>
<path d="M10.1953 11.0291C10.1461 10.5921 9.94295 10.2536 9.58594 10.0135C9.22893 9.77036 8.77959 9.64879 8.23793 9.64879C7.85014 9.64879 7.51468 9.71035 7.23153 9.83345C6.94839 9.95348 6.72834 10.1197 6.57138 10.332C6.4175 10.5413 6.34055 10.7798 6.34055 11.0476C6.34055 11.2723 6.39287 11.4661 6.49751 11.6293C6.60523 11.7924 6.74527 11.9293 6.91761 12.0401C7.09304 12.1478 7.28078 12.2386 7.48082 12.3125C7.68087 12.3833 7.87322 12.4418 8.05788 12.4879L8.98118 12.728C9.28279 12.8018 9.59209 12.9019 9.90909 13.0281C10.2261 13.1542 10.52 13.3204 10.7908 13.5266C11.0617 13.7328 11.2802 13.9883 11.4464 14.293C11.6156 14.5977 11.7003 14.9624 11.7003 15.3871C11.7003 15.9226 11.5618 16.3981 11.2848 16.8136C11.0109 17.229 10.6123 17.5568 10.0891 17.7969C9.56901 18.0369 8.93963 18.157 8.20099 18.157C7.49313 18.157 6.88068 18.0446 6.36364 17.82C5.84659 17.5953 5.44188 17.2768 5.1495 16.8643C4.85713 16.4489 4.69555 15.9564 4.66477 15.3871H6.09588C6.12358 15.7287 6.23438 16.0134 6.42827 16.2411C6.62524 16.4658 6.87607 16.6335 7.18075 16.7443C7.48852 16.852 7.82552 16.9059 8.19176 16.9059C8.59493 16.9059 8.95348 16.8428 9.2674 16.7166C9.5844 16.5874 9.83369 16.4089 10.0153 16.1811C10.1969 15.9503 10.2876 15.681 10.2876 15.3732C10.2876 15.0932 10.2076 14.8639 10.0476 14.6854C9.89063 14.5069 9.67673 14.3591 9.4059 14.2422C9.13814 14.1252 8.83499 14.0221 8.49645 13.9329L7.37926 13.6282C6.62216 13.422 6.02202 13.1188 5.57884 12.7188C5.13873 12.3187 4.91868 11.7893 4.91868 11.1307C4.91868 10.5859 5.06641 10.1104 5.36186 9.70419C5.65732 9.29794 6.05741 8.98248 6.56215 8.75781C7.06688 8.53007 7.63625 8.41619 8.27024 8.41619C8.91039 8.41619 9.47514 8.52853 9.96449 8.7532C10.4569 8.97786 10.8447 9.28717 11.1278 9.68111C11.411 10.072 11.5587 10.5213 11.571 11.0291H10.1953ZM14.5637 15.5948L14.5544 13.9098H14.7945L17.6198 10.9091H19.2725L16.0502 14.3253H15.8332L14.5637 15.5948ZM13.2941 18V8.54545H14.6744V18H13.2941ZM17.7721 18L15.233 14.63L16.184 13.6651L19.4664 18H17.7721ZM23.2253 18.1431C22.5605 18.1431 21.9804 17.9908 21.4849 17.6861C20.9894 17.3814 20.6047 16.9551 20.3308 16.4073C20.0569 15.8595 19.9199 15.2193 19.9199 14.4869C19.9199 13.7513 20.0569 13.1081 20.3308 12.5572C20.6047 12.0063 20.9894 11.5785 21.4849 11.2738C21.9804 10.9691 22.5605 10.8168 23.2253 10.8168C23.8901 10.8168 24.4702 10.9691 24.9657 11.2738C25.4612 11.5785 25.8459 12.0063 26.1199 12.5572C26.3938 13.1081 26.5307 13.7513 26.5307 14.4869C26.5307 15.2193 26.3938 15.8595 26.1199 16.4073C25.8459 16.9551 25.4612 17.3814 24.9657 17.6861C24.4702 17.9908 23.8901 18.1431 23.2253 18.1431ZM23.2299 16.9844C23.6608 16.9844 24.0178 16.8705 24.301 16.6428C24.5841 16.415 24.7934 16.1119 24.9288 15.7333C25.0673 15.3548 25.1365 14.9377 25.1365 14.4822C25.1365 14.0298 25.0673 13.6143 24.9288 13.2358C24.7934 12.8542 24.5841 12.5479 24.301 12.3171C24.0178 12.0863 23.6608 11.9709 23.2299 11.9709C22.796 11.9709 22.4359 12.0863 22.1497 12.3171C21.8665 12.5479 21.6557 12.8542 21.5172 13.2358C21.3818 13.6143 21.3141 14.0298 21.3141 14.4822C21.3141 14.9377 21.3818 15.3548 21.5172 15.7333C21.6557 16.1119 21.8665 16.415 22.1497 16.6428C22.4359 16.8705 22.796 16.9844 23.2299 16.9844ZM31.0583 18.1431C30.372 18.1431 29.7811 17.9877 29.2856 17.6768C28.7932 17.3629 28.4146 16.9305 28.1499 16.3796C27.8853 15.8287 27.7529 15.1978 27.7529 14.4869C27.7529 13.7667 27.8883 13.1312 28.1592 12.5803C28.43 12.0263 28.8116 11.5939 29.3041 11.283C29.7965 10.9722 30.3766 10.8168 31.0445 10.8168C31.5831 10.8168 32.0632 10.9168 32.4848 11.1168C32.9065 11.3138 33.2465 11.5908 33.5051 11.9478C33.7667 12.3048 33.9221 12.7218 33.9713 13.1989H32.6279C32.5541 12.8665 32.3848 12.5803 32.1201 12.3402C31.8585 12.1001 31.5077 11.9801 31.0676 11.9801C30.6829 11.9801 30.3459 12.0817 30.0566 12.2848C29.7703 12.4848 29.5472 12.7711 29.3872 13.1435C29.2271 13.5128 29.1471 13.9498 29.1471 14.4545C29.1471 14.9716 29.2256 15.4179 29.3825 15.7933C29.5395 16.1688 29.7611 16.4596 30.0473 16.6658C30.3366 16.872 30.6767 16.9751 31.0676 16.9751C31.3292 16.9751 31.5661 16.9274 31.7785 16.832C31.9939 16.7335 32.174 16.5935 32.3186 16.4119C32.4664 16.2304 32.5695 16.0118 32.6279 15.7564H33.9713C33.9221 16.215 33.7728 16.6243 33.5235 16.9844C33.2742 17.3445 32.9403 17.6276 32.5218 17.8338C32.1063 18.04 31.6185 18.1431 31.0583 18.1431ZM30.0843 8.03303L31.0352 9.27024L31.9816 8.03303H33.2327V8.10227L31.6077 10.0597H30.4582L28.8378 8.10227V8.03303H30.0843ZM35.4474 18V10.9091H36.8278V18H35.4474ZM36.1445 9.81499C35.9045 9.81499 35.6983 9.73497 35.5259 9.57493C35.3567 9.41181 35.272 9.21792 35.272 8.99325C35.272 8.76551 35.3567 8.57161 35.5259 8.41158C35.6983 8.24846 35.9045 8.1669 36.1445 8.1669C36.3846 8.1669 36.5893 8.24846 36.7585 8.41158C36.9309 8.57161 37.017 8.76551 37.017 8.99325C37.017 9.21792 36.9309 9.41181 36.7585 9.57493C36.5893 9.73497 36.3846 9.81499 36.1445 9.81499ZM41.9948 10.9091V12.017H38.1215V10.9091H41.9948ZM39.1602 9.21023H40.5406V15.918C40.5406 16.1857 40.5806 16.3873 40.6606 16.5227C40.7406 16.6551 40.8437 16.7459 40.9699 16.7951C41.0992 16.8413 41.2392 16.8643 41.39 16.8643C41.5008 16.8643 41.5977 16.8567 41.6808 16.8413C41.7639 16.8259 41.8286 16.8136 41.8747 16.8043L42.124 17.9446C42.044 17.9754 41.9301 18.0062 41.7824 18.0369C41.6347 18.0708 41.45 18.0893 41.2284 18.0923C40.8653 18.0985 40.5267 18.0339 40.2128 17.8984C39.8989 17.763 39.645 17.5537 39.4511 17.2706C39.2572 16.9875 39.1602 16.632 39.1602 16.2042V9.21023ZM41.33 10.032V7.62678H42.5672L42.2441 10.032H41.33ZM48.4948 13.7898V18H47.1144V10.9091H48.4394V12.0632H48.5271C48.6902 11.6877 48.9456 11.3861 49.2934 11.1584C49.6443 10.9306 50.0859 10.8168 50.6183 10.8168C51.1015 10.8168 51.5247 10.9183 51.8879 11.1214C52.251 11.3215 52.5326 11.62 52.7327 12.017C52.9327 12.4141 53.0328 12.9049 53.0328 13.4897V18H51.6524V13.6559C51.6524 13.1419 51.5186 12.7403 51.2508 12.451C50.983 12.1586 50.6153 12.0124 50.1475 12.0124C49.8274 12.0124 49.5427 12.0817 49.2934 12.2202C49.0472 12.3587 48.8518 12.5618 48.7071 12.8295C48.5655 13.0942 48.4948 13.4143 48.4948 13.7898ZM56.9475 18.157C56.4982 18.157 56.0919 18.0739 55.7288 17.9077C55.3656 17.7384 55.0779 17.4937 54.8655 17.1737C54.6562 16.8536 54.5516 16.4612 54.5516 15.9964C54.5516 15.5964 54.6285 15.267 54.7824 15.0085C54.9363 14.75 55.144 14.5453 55.4056 14.3945C55.6672 14.2437 55.9596 14.1299 56.2828 14.0529C56.6059 13.976 56.9352 13.9175 57.2707 13.8775C57.6954 13.8282 58.0401 13.7882 58.3048 13.7575C58.5695 13.7236 58.7618 13.6697 58.8818 13.5959C59.0019 13.522 59.0619 13.402 59.0619 13.2358V13.2035C59.0619 12.8003 58.948 12.4879 58.7203 12.2663C58.4956 12.0447 58.1601 11.9339 57.7139 11.9339C57.2491 11.9339 56.8829 12.037 56.6151 12.2433C56.3505 12.4464 56.1673 12.6726 56.0658 12.9219L54.7686 12.6264C54.9224 12.1955 55.1471 11.8478 55.4426 11.5831C55.7411 11.3153 56.0843 11.1214 56.472 11.0014C56.8598 10.8783 57.2676 10.8168 57.6954 10.8168C57.9785 10.8168 58.2786 10.8506 58.5956 10.9183C58.9157 10.983 59.2142 11.103 59.4912 11.2784C59.7713 11.4538 60.0006 11.7047 60.1791 12.0309C60.3576 12.354 60.4468 12.7741 60.4468 13.2912V18H59.0988V17.0305H59.0434C58.9542 17.209 58.8203 17.3845 58.6418 17.5568C58.4633 17.7292 58.234 17.8723 57.9539 17.9862C57.6739 18.1 57.3384 18.157 56.9475 18.157ZM57.2476 17.049C57.6292 17.049 57.9555 16.9736 58.2263 16.8228C58.5002 16.672 58.7079 16.475 58.8495 16.2319C58.9942 15.9857 59.0665 15.7225 59.0665 15.4425V14.5284C59.0173 14.5777 58.9218 14.6238 58.7803 14.6669C58.6418 14.7069 58.4833 14.7423 58.3048 14.7731C58.1263 14.8008 57.9524 14.8269 57.7831 14.8516C57.6138 14.8731 57.4723 14.8916 57.3584 14.907C57.0906 14.9408 56.846 14.9978 56.6244 15.0778C56.4059 15.1578 56.2304 15.2732 56.0981 15.424C55.9688 15.5717 55.9042 15.7687 55.9042 16.0149C55.9042 16.3565 56.0304 16.6151 56.2828 16.7905C56.5351 16.9628 56.8567 17.049 57.2476 17.049ZM66.9953 15.5948L66.9861 13.9098H67.2261L70.0514 10.9091H71.7041L68.4818 14.3253H68.2648L66.9953 15.5948ZM65.7258 18V8.54545H67.1061V18H65.7258ZM70.2037 18L67.6647 14.63L68.6157 13.6651L71.898 18H70.2037ZM72.9621 18V10.9091H74.2963V12.0355H74.3701C74.4994 11.6539 74.7271 11.3538 75.0534 11.1353C75.3827 10.9137 75.7551 10.8029 76.1705 10.8029C76.2567 10.8029 76.3583 10.806 76.4752 10.8121C76.5953 10.8183 76.6891 10.826 76.7568 10.8352V12.1555C76.7014 12.1402 76.603 12.1232 76.4614 12.1048C76.3198 12.0832 76.1782 12.0724 76.0367 12.0724C75.7104 12.0724 75.4196 12.1417 75.1642 12.2802C74.9118 12.4156 74.7117 12.6049 74.564 12.848C74.4163 13.0881 74.3424 13.362 74.3424 13.6697V18H72.9621ZM80.6843 18.1431C80.0195 18.1431 79.4394 17.9908 78.9439 17.6861C78.4484 17.3814 78.0637 16.9551 77.7898 16.4073C77.5159 15.8595 77.3789 15.2193 77.3789 14.4869C77.3789 13.7513 77.5159 13.1081 77.7898 12.5572C78.0637 12.0063 78.4484 11.5785 78.9439 11.2738C79.4394 10.9691 80.0195 10.8168 80.6843 10.8168C81.3491 10.8168 81.9292 10.9691 82.4247 11.2738C82.9202 11.5785 83.3049 12.0063 83.5788 12.5572C83.8527 13.1081 83.9897 13.7513 83.9897 14.4869C83.9897 15.2193 83.8527 15.8595 83.5788 16.4073C83.3049 16.9551 82.9202 17.3814 82.4247 17.6861C81.9292 17.9908 81.3491 18.1431 80.6843 18.1431ZM80.6889 16.9844C81.1198 16.9844 81.4768 16.8705 81.7599 16.6428C82.0431 16.415 82.2524 16.1119 82.3878 15.7333C82.5263 15.3548 82.5955 14.9377 82.5955 14.4822C82.5955 14.0298 82.5263 13.6143 82.3878 13.2358C82.2524 12.8542 82.0431 12.5479 81.7599 12.3171C81.4768 12.0863 81.1198 11.9709 80.6889 11.9709C80.255 11.9709 79.8949 12.0863 79.6087 12.3171C79.3255 12.5479 79.1147 12.8542 78.9762 13.2358C78.8408 13.6143 78.7731 14.0298 78.7731 14.4822C78.7731 14.9377 78.8408 15.3548 78.9762 15.7333C79.1147 16.1119 79.3255 16.415 79.6087 16.6428C79.8949 16.8705 80.255 16.9844 80.6889 16.9844ZM86.8 15.5948L86.7907 13.9098H87.0308L89.8561 10.9091H91.5088L88.2865 14.3253H88.0695L86.8 15.5948ZM85.5305 18V8.54545H86.9108V18H85.5305ZM90.0084 18L87.4694 14.63L88.4204 13.6651L91.7027 18H90.0084Z" fill="#B1B1B1"/>
</svg>
