<svg width="20" height="20" viewBox="0 0 20 20" fill="none" xmlns="http://www.w3.org/2000/svg">
<g clip-path="url(#clip0_130_402)">
<path fill-rule="evenodd" clip-rule="evenodd" d="M2.24882 1.28334C2.24882 0.69161 1.76912 0.211914 1.17739 0.211914C0.585652 0.211914 0.105957 0.69161 0.105957 1.28334V18.7166C0.105957 19.3085 0.585652 19.788 1.17739 19.788H18.6107C19.2024 19.788 19.6822 19.3085 19.6822 18.7166C19.6822 18.1249 19.2024 17.6452 18.6107 17.6452H2.24882V1.28334ZM14.6022 3.47326C14.2873 3.24841 13.8948 3.16084 13.5143 3.23058C13.1338 3.30032 12.7978 3.52142 12.5832 3.84331L8.1857 10.4396L6.06533 8.31918C5.50743 7.76128 4.60292 7.76128 4.04502 8.31918C3.48713 8.87706 3.48713 9.78159 4.04502 10.3395L7.39759 13.692C7.70022 13.9947 8.12259 14.1457 8.5485 14.1035C8.9744 14.0613 9.35897 13.8304 9.59637 13.4743L14.1421 6.65578L17.635 9.15078C18.2772 9.60936 19.1693 9.46066 19.6279 8.81865C20.0864 8.17662 19.9377 7.28441 19.2957 6.82582L14.6022 3.47326Z" fill="white"/>
</g>
<defs>
<clipPath id="clip0_130_402">
<rect width="20" height="20" fill="white"/>
</clipPath>
</defs>
</svg>
