<svg width="159" height="20" viewBox="0 0 159 20" fill="none" xmlns="http://www.w3.org/2000/svg">
<path d="M4.92 16.1L1.12 4.54C0.546667 4.32667 0.173333 4.1 0 3.86L0.2 2.2H4.88L5.08 3.86C4.89333 4.11333 4.55333 4.32667 4.06 4.5L5.76 10.42C6.04 11.34 6.21333 12.1867 6.28 12.96L6.3 13.3H6.58C6.59333 12.4867 6.76 11.54 7.08 10.46L8.86 4.52C8.35333 4.34667 8 4.12667 7.8 3.86L8 2.2H12.56L12.76 3.86C12.52 4.15333 12.0733 4.40667 11.42 4.62L7.66 16.1H4.92ZM13.3577 6C14.1043 5.82667 14.7977 5.74 15.4377 5.74C16.0777 5.74 16.6177 5.76 17.0577 5.8V13.78C17.5777 13.98 17.9443 14.2067 18.1577 14.46L17.9577 16H13.3577L13.1577 14.46C13.3443 14.2067 13.711 13.98 14.2577 13.78V8.22C13.791 8.06 13.4243 7.83333 13.1577 7.54L13.3577 6ZM15.6177 4.62C14.511 4.62 13.9577 4.12 13.9577 3.12C13.9577 2.10667 14.511 1.6 15.6177 1.6C16.7377 1.6 17.2977 2.10667 17.2977 3.12C17.2977 4.12 16.7377 4.62 15.6177 4.62ZM19.2775 8.84C19.1308 8.17333 19.0575 7.6 19.0575 7.12C19.0575 6.62667 19.0642 6.25333 19.0775 6H27.1775L27.3775 7.68L23.4775 12.66C23.1175 13.14 22.7242 13.5533 22.2975 13.9L22.3975 14.12C22.7842 14 23.3242 13.94 24.0175 13.94H25.1175C25.3175 13.46 25.5375 13.1067 25.7775 12.88L27.3175 13.08C27.4642 13.7467 27.5375 14.3333 27.5375 14.84C27.5375 15.3467 27.5308 15.7333 27.5175 16H19.0575L18.8575 14.36L22.7775 9.32C23.1375 8.84 23.5308 8.42667 23.9575 8.08L23.8575 7.86C23.4708 7.98 22.9308 8.04 22.2375 8.04H21.4575C21.2575 8.49333 21.0442 8.82667 20.8175 9.04L19.2775 8.84ZM35.9078 15.16C34.9878 15.8267 33.9011 16.16 32.6478 16.16C31.4078 16.16 30.5411 15.9 30.0478 15.38C29.5545 14.86 29.3078 14.0133 29.3078 12.84V8.22C28.8411 8.06 28.4745 7.83333 28.2078 7.54L28.4078 6C29.1545 5.82667 29.8478 5.74 30.4878 5.74C31.1278 5.74 31.6678 5.76 32.1078 5.8V12.18C32.1078 12.9 32.2145 13.38 32.4278 13.62C32.6545 13.8467 33.0945 13.96 33.7478 13.96C34.4011 13.96 35.0078 13.7467 35.5678 13.32V8.22C35.1011 8.06 34.7345 7.83333 34.4678 7.54L34.6678 6C35.4145 5.82667 36.1078 5.74 36.7478 5.74C37.3878 5.74 37.9278 5.76 38.3678 5.8V13.6C38.8345 13.6933 39.2011 13.8067 39.4678 13.94V15.52C38.6678 15.9467 37.6611 16.16 36.4478 16.16C36.1145 15.92 35.9345 15.5867 35.9078 15.16ZM40.6856 7.48C40.6856 7.28 40.6923 7.06667 40.7056 6.84C41.9456 6.17333 43.279 5.84 44.7056 5.84C46.1323 5.84 47.1523 6.11333 47.7656 6.66C48.3923 7.19333 48.7056 8.08667 48.7056 9.34V13.6C49.1723 13.6933 49.539 13.8067 49.8056 13.94V15.68C49.1256 16 48.1523 16.16 46.8856 16.16C46.7523 15.8133 46.639 15.3933 46.5456 14.9C45.9723 15.74 44.9323 16.16 43.4256 16.16C42.5323 16.16 41.7656 15.9 41.1256 15.38C40.499 14.86 40.1856 14.1533 40.1856 13.26C40.1856 12.3667 40.479 11.6667 41.0656 11.16C41.6656 10.64 42.5523 10.38 43.7256 10.38H45.9056V9.42C45.9056 8.38 45.3523 7.86 44.2456 7.86C43.8323 7.86 43.4923 7.9 43.2256 7.98C43.199 8.54 43.119 8.97333 42.9856 9.28H41.0256C40.799 8.81333 40.6856 8.21333 40.6856 7.48ZM44.2856 14.12C44.9656 14.12 45.5056 13.92 45.9056 13.52V11.88H44.5056C43.5456 11.88 43.0656 12.2467 43.0656 12.98C43.0656 13.3133 43.1656 13.5867 43.3656 13.8C43.579 14.0133 43.8856 14.12 44.2856 14.12ZM50.48 1.8C51.2267 1.62667 51.92 1.54 52.56 1.54C53.2 1.54 53.74 1.56 54.18 1.6V13.78C54.7 13.98 55.0667 14.2067 55.28 14.46L55.08 16H50.48L50.28 14.46C50.4667 14.2067 50.8333 13.98 51.38 13.78V4.02C50.9133 3.86 50.5467 3.63333 50.28 3.34L50.48 1.8ZM56.3459 6C57.0926 5.82667 57.7859 5.74 58.4259 5.74C59.0659 5.74 59.6059 5.76 60.0459 5.8V13.78C60.5659 13.98 60.9326 14.2067 61.1459 14.46L60.9459 16H56.3459L56.1459 14.46C56.3326 14.2067 56.6993 13.98 57.2459 13.78V8.22C56.7793 8.06 56.4126 7.83333 56.1459 7.54L56.3459 6ZM58.6059 4.62C57.4993 4.62 56.9459 4.12 56.9459 3.12C56.9459 2.10667 57.4993 1.6 58.6059 1.6C59.7259 1.6 60.2859 2.10667 60.2859 3.12C60.2859 4.12 59.7259 4.62 58.6059 4.62ZM62.2658 8.84C62.1191 8.17333 62.0458 7.6 62.0458 7.12C62.0458 6.62667 62.0524 6.25333 62.0658 6H70.1658L70.3658 7.68L66.4658 12.66C66.1058 13.14 65.7124 13.5533 65.2858 13.9L65.3858 14.12C65.7724 14 66.3124 13.94 67.0058 13.94H68.1058C68.3058 13.46 68.5258 13.1067 68.7658 12.88L70.3058 13.08C70.4524 13.7467 70.5258 14.3333 70.5258 14.84C70.5258 15.3467 70.5191 15.7333 70.5058 16H62.0458L61.8458 14.36L65.7658 9.32C66.1258 8.84 66.5191 8.42667 66.9458 8.08L66.8458 7.86C66.4591 7.98 65.9191 8.04 65.2258 8.04H64.4458C64.2458 8.49333 64.0324 8.82667 63.8058 9.04L62.2658 8.84ZM71.9161 7.48C71.9161 7.28 71.9228 7.06667 71.9361 6.84C73.1761 6.17333 74.5094 5.84 75.9361 5.84C77.3628 5.84 78.3828 6.11333 78.9961 6.66C79.6228 7.19333 79.9361 8.08667 79.9361 9.34V13.6C80.4028 13.6933 80.7694 13.8067 81.0361 13.94V15.68C80.3561 16 79.3828 16.16 78.1161 16.16C77.9828 15.8133 77.8694 15.3933 77.7761 14.9C77.2028 15.74 76.1628 16.16 74.6561 16.16C73.7628 16.16 72.9961 15.9 72.3561 15.38C71.7294 14.86 71.4161 14.1533 71.4161 13.26C71.4161 12.3667 71.7094 11.6667 72.2961 11.16C72.8961 10.64 73.7828 10.38 74.9561 10.38H77.1361V9.42C77.1361 8.38 76.5828 7.86 75.4761 7.86C75.0628 7.86 74.7228 7.9 74.4561 7.98C74.4294 8.54 74.3494 8.97333 74.2161 9.28H72.2561C72.0294 8.81333 71.9161 8.21333 71.9161 7.48ZM75.5161 14.12C76.1961 14.12 76.7361 13.92 77.1361 13.52V11.88H75.7361C74.7761 11.88 74.2961 12.2467 74.2961 12.98C74.2961 13.3133 74.3961 13.5867 74.5961 13.8C74.8094 14.0133 75.1161 14.12 75.5161 14.12ZM75.4561 4.62L74.3761 4C74.4561 3.41333 74.6828 2.71333 75.0561 1.9C75.4294 1.07333 75.8094 0.466666 76.1961 0.0799987L78.2761 1.36C78.0894 1.89333 77.7094 2.48667 77.1361 3.14C76.5628 3.78 76.0028 4.27333 75.4561 4.62ZM86.4505 7.88C85.2238 7.88 84.6105 8.93333 84.6105 11.04C84.6105 12.1067 84.7771 12.8533 85.1105 13.28C85.4571 13.6933 85.9505 13.9 86.5905 13.9C87.6038 13.9 88.4971 13.8067 89.2705 13.62L89.8705 15.16C89.4438 15.44 88.8705 15.68 88.1505 15.88C87.4305 16.0667 86.7305 16.16 86.0505 16.16C83.1705 16.16 81.7305 14.4933 81.7305 11.16C81.7305 9.21333 82.2305 7.81333 83.2305 6.96C84.1238 6.21333 85.2105 5.84 86.4905 5.84C87.7705 5.84 88.8371 6.08 89.6905 6.56C89.7038 6.69333 89.7105 6.82 89.7105 6.94C89.7105 7.7 89.5371 8.42 89.1905 9.1H87.4305C87.2438 8.76667 87.1305 8.36667 87.0905 7.9C86.9305 7.88667 86.7171 7.88 86.4505 7.88ZM90.9944 6C91.741 5.82667 92.4344 5.74 93.0744 5.74C93.7144 5.74 94.2544 5.76 94.6944 5.8V13.78C95.2144 13.98 95.581 14.2067 95.7944 14.46L95.5944 16H90.9944L90.7944 14.46C90.981 14.2067 91.3477 13.98 91.8944 13.78V8.22C91.4277 8.06 91.061 7.83333 90.7944 7.54L90.9944 6ZM93.2544 4.62C92.1477 4.62 91.5944 4.12 91.5944 3.12C91.5944 2.10667 92.1477 1.6 93.2544 1.6C94.3744 1.6 94.9344 2.10667 94.9344 3.12C94.9344 4.12 94.3744 4.62 93.2544 4.62ZM96.9942 7.48C96.9942 7.28 97.0009 7.06667 97.0142 6.84C98.2542 6.17333 99.5876 5.84 101.014 5.84C102.441 5.84 103.461 6.11333 104.074 6.66C104.701 7.19333 105.014 8.08667 105.014 9.34V13.6C105.481 13.6933 105.848 13.8067 106.114 13.94V15.68C105.434 16 104.461 16.16 103.194 16.16C103.061 15.8133 102.948 15.3933 102.854 14.9C102.281 15.74 101.241 16.16 99.7342 16.16C98.8409 16.16 98.0742 15.9 97.4342 15.38C96.8076 14.86 96.4942 14.1533 96.4942 13.26C96.4942 12.3667 96.7876 11.6667 97.3742 11.16C97.9742 10.64 98.8609 10.38 100.034 10.38H102.214V9.42C102.214 8.38 101.661 7.86 100.554 7.86C100.141 7.86 99.8009 7.9 99.5342 7.98C99.5076 8.54 99.4276 8.97333 99.2942 9.28H97.3342C97.1076 8.81333 96.9942 8.21333 96.9942 7.48ZM100.594 14.12C101.274 14.12 101.814 13.92 102.214 13.52V11.88H100.814C99.8542 11.88 99.3742 12.2467 99.3742 12.98C99.3742 13.3133 99.4742 13.5867 99.6742 13.8C99.8876 14.0133 100.194 14.12 100.594 14.12ZM114.121 3.48V19.8L112.801 20C112.334 19.5333 112.101 18.9067 112.101 18.12V1.8L113.421 1.6C113.887 2.05333 114.121 2.68 114.121 3.48Z" fill="white"/>
<path d="M126.182 16.16C124.289 16.16 122.869 15.6133 121.922 14.52C120.989 13.4267 120.522 11.66 120.522 9.22C120.522 6.76667 121.035 4.96 122.062 3.8C123.102 2.62667 124.575 2.04 126.482 2.04C128.402 2.04 129.829 2.56 130.762 3.6C131.709 4.64 132.182 6.38 132.182 8.82C132.182 11.26 131.655 13.0933 130.602 14.32C129.549 15.5467 128.075 16.16 126.182 16.16ZM124.242 5.34C123.762 6.03333 123.522 7.24 123.522 8.96C123.522 10.68 123.775 11.9333 124.282 12.72C124.789 13.5067 125.482 13.9 126.362 13.9C127.255 13.9 127.949 13.5333 128.442 12.8C128.935 12.0533 129.182 10.82 129.182 9.1C129.182 5.9 128.222 4.3 126.302 4.3C125.409 4.3 124.722 4.64667 124.242 5.34ZM133.273 6C134.007 5.84 134.667 5.76 135.253 5.76C135.84 5.76 136.327 5.77333 136.713 5.8V6.78C137.607 6.15333 138.56 5.84 139.573 5.84C140.907 5.84 141.873 6.22 142.473 6.98C143.073 7.74 143.373 9.00667 143.373 10.78C143.373 11.7267 143.233 12.56 142.953 13.28C142.673 14 142.293 14.56 141.813 14.96C140.893 15.76 139.8 16.16 138.533 16.16C137.987 16.16 137.467 16.1067 136.973 16V17.72C137.76 17.9333 138.267 18.18 138.493 18.46L138.293 20H133.273L133.073 18.46C133.247 18.22 133.613 17.9933 134.173 17.78V8.22C133.707 8.06 133.34 7.83333 133.073 7.54L133.273 6ZM138.333 14.12C139 14.12 139.527 13.8267 139.913 13.24C140.3 12.64 140.493 11.82 140.493 10.78C140.493 9.72667 140.387 9.00667 140.173 8.62C139.96 8.23333 139.573 8.04 139.013 8.04C138.16 8.04 137.48 8.24 136.973 8.64V13.96C137.387 14.0667 137.84 14.12 138.333 14.12ZM144.647 6C145.393 5.82667 146.087 5.74 146.727 5.74C147.367 5.74 147.907 5.76 148.347 5.8V13.78C148.867 13.98 149.233 14.2067 149.447 14.46L149.247 16H144.647L144.447 14.46C144.633 14.2067 145 13.98 145.547 13.78V8.22C145.08 8.06 144.713 7.83333 144.447 7.54L144.647 6ZM146.907 4.62C145.8 4.62 145.247 4.12 145.247 3.12C145.247 2.10667 145.8 1.6 146.907 1.6C148.027 1.6 148.587 2.10667 148.587 3.12C148.587 4.12 148.027 4.62 146.907 4.62ZM154.247 7.64C153.367 7.64 152.927 7.9 152.927 8.42C152.927 8.91333 153.387 9.28 154.307 9.52L155.887 9.94C157.513 10.3667 158.327 11.3067 158.327 12.76C158.327 13.76 157.973 14.58 157.267 15.22C156.573 15.8467 155.46 16.16 153.927 16.16C152.407 16.16 151.22 15.9467 150.367 15.52C150.353 15.3733 150.347 15.2267 150.347 15.08C150.347 14.3467 150.493 13.6867 150.787 13.1H152.447C152.62 13.42 152.733 13.7533 152.787 14.1C153.053 14.18 153.433 14.22 153.927 14.22C155.1 14.22 155.687 13.8867 155.687 13.22C155.687 13.0067 155.607 12.8333 155.447 12.7C155.287 12.5533 154.973 12.4133 154.507 12.28L152.927 11.82C152.113 11.5933 151.48 11.26 151.027 10.82C150.573 10.3667 150.347 9.70667 150.347 8.84C150.347 7.96 150.7 7.24 151.407 6.68C152.113 6.12 153.12 5.84 154.427 5.84C155.747 5.84 156.86 6.03333 157.767 6.42C157.78 6.55333 157.787 6.68667 157.787 6.82C157.787 7.51333 157.64 8.15333 157.347 8.74H155.707C155.533 8.43333 155.42 8.11333 155.367 7.78C154.993 7.68667 154.62 7.64 154.247 7.64Z" fill="#787777"/>
</svg>
