<svg width="256" height="149" viewBox="0 0 256 149" fill="none" xmlns="http://www.w3.org/2000/svg">
    <path d="M102 63C102 61.3431 103.343 60 105 60H129C130.657 60 132 61.3431 132 63V87C132 88.6569 130.657 90 129 90H105C103.343 90 102 88.6569 102 87V63Z" fill="#1D9873"/>
    <path d="M102 63C102 61.3431 103.343 60 105 60H129C130.657 60 132 61.3431 132 63V87C132 88.6569 130.657 90 129 90H105C103.343 90 102 88.6569 102 87V63Z" fill="#1D9873"/>
    <path d="M105 90H129C130.657 90 132 88.6569 132 87V63C132 61.3431 130.657 60 129 60H105C103.343 60 102 61.3431 102 63V87C102 88.6569 103.343 90 105 90Z" stroke="#1D9873"/>
    <path d="M138 63C138 61.3431 139.343 60 141 60H165C166.657 60 168 61.3431 168 63V87C168 88.6569 166.657 90 165 90H141C139.343 90 138 88.6569 138 87V63Z" fill="#1D9873"/>
    <path d="M138 63C138 61.3431 139.343 60 141 60H165C166.657 60 168 61.3431 168 63V87C168 88.6569 166.657 90 165 90H141C139.343 90 138 88.6569 138 87V63Z" fill="#1D9873"/>
    <path d="M141 90H165C166.657 90 168 88.6569 168 87V63C168 61.3431 166.657 60 165 60H141C139.343 60 138 61.3431 138 63V87C138 88.6569 139.343 90 141 90Z" stroke="#1D9873"/>
    <path d="M174 63C174 61.3431 175.343 60 177 60H201C202.657 60 204 61.3431 204 63V87C204 88.6569 202.657 90 201 90H177C175.343 90 174 88.6569 174 87V63Z" fill="#1D9873"/>
    <path d="M174 63C174 61.3431 175.343 60 177 60H201C202.657 60 204 61.3431 204 63V87C204 88.6569 202.657 90 201 90H177C175.343 90 174 88.6569 174 87V63Z" fill="#1D9873"/>
    <path d="M177 90H201C202.657 90 204 88.6569 204 87V63C204 61.3431 202.657 60 201 60H177C175.343 60 174 61.3431 174 63V87C174 88.6569 175.343 90 177 90Z" stroke="#1D9873"/>
    <path d="M66 63C66 61.3431 67.3431 60 69 60H93C94.6569 60 96 61.3431 96 63V87C96 88.6569 94.6569 90 93 90H69C67.3431 90 66 88.6569 66 87V63Z" fill="#1D9873"/>
    <path d="M66 63C66 61.3431 67.3431 60 69 60H93C94.6569 60 96 61.3431 96 63V87C96 88.6569 94.6569 90 93 90H69C67.3431 90 66 88.6569 66 87V63Z" fill="#1D9873"/>
    <path d="M69 90H93C94.6569 90 96 88.6569 96 87V63C96 61.3431 94.6569 60 93 60H69C67.3431 60 66 61.3431 66 63V87C66 88.6569 67.3431 90 69 90Z" stroke="#1D9873"/>
    <g filter="url(#filter0_d_2_50)">
        <path d="M89.2929 80.2929C88.9024 80.6834 88.9024 81.3166 89.2929 81.7071L95.6569 88.0711C96.0474 88.4616 96.6805 88.4616 97.0711 88.0711C97.4616 87.6805 97.4616 87.0474 97.0711 86.6569L91.4142 81L97.0711 75.3431C97.4616 74.9526 97.4616 74.3195 97.0711 73.9289C96.6805 73.5384 96.0474 73.5384 95.6569 73.9289L89.2929 80.2929ZM107 80H90V82H107V80Z" fill="#2196F3"/>
    </g>
    <g filter="url(#filter1_d_2_50)">
        <path d="M107.707 66.2929C108.098 66.6834 108.098 67.3166 107.707 67.7071L101.343 74.0711C100.953 74.4616 100.319 74.4616 99.9289 74.0711C99.5384 73.6805 99.5384 73.0474 99.9289 72.6569L105.586 67L99.9289 61.3431C99.5384 60.9526 99.5384 60.3195 99.9289 59.9289C100.319 59.5384 100.953 59.5384 101.343 59.9289L107.707 66.2929ZM90 66H107V68H90V66Z" fill="#2196F3"/>
    </g>
    <g filter="url(#filter2_d_2_50)">
        <path d="M145.707 66.2929C146.098 66.6834 146.098 67.3166 145.707 67.7071L139.343 74.0711C138.953 74.4616 138.319 74.4616 137.929 74.0711C137.538 73.6805 137.538 73.0474 137.929 72.6569L143.586 67L137.929 61.3431C137.538 60.9526 137.538 60.3195 137.929 59.9289C138.319 59.5384 138.953 59.5384 139.343 59.9289L145.707 66.2929ZM128 66H145V68H128V66Z" fill="#2196F3"/>
    </g>
    <g filter="url(#filter3_d_2_50)">
        <path d="M179.707 66.2929C180.098 66.6834 180.098 67.3166 179.707 67.7071L173.343 74.0711C172.953 74.4616 172.319 74.4616 171.929 74.0711C171.538 73.6805 171.538 73.0474 171.929 72.6569L177.586 67L171.929 61.3431C171.538 60.9526 171.538 60.3195 171.929 59.9289C172.319 59.5384 172.953 59.5384 173.343 59.9289L179.707 66.2929ZM162 66H179V68H162V66Z" fill="#2196F3"/>
    </g>
    <g filter="url(#filter4_d_2_50)">
        <path d="M127.293 80.2929C126.902 80.6834 126.902 81.3166 127.293 81.7071L133.657 88.0711C134.047 88.4616 134.681 88.4616 135.071 88.0711C135.462 87.6805 135.462 87.0474 135.071 86.6569L129.414 81L135.071 75.3431C135.462 74.9526 135.462 74.3195 135.071 73.9289C134.681 73.5384 134.047 73.5384 133.657 73.9289L127.293 80.2929ZM145 80H128V82H145V80Z" fill="#2196F3"/>
    </g>
    <g filter="url(#filter5_d_2_50)">
        <path d="M161.293 80.2929C160.902 80.6834 160.902 81.3166 161.293 81.7071L167.657 88.0711C168.047 88.4616 168.681 88.4616 169.071 88.0711C169.462 87.6805 169.462 87.0474 169.071 86.6569L163.414 81L169.071 75.3431C169.462 74.9526 169.462 74.3195 169.071 73.9289C168.681 73.5384 168.047 73.5384 167.657 73.9289L161.293 80.2929ZM179 80H162V82H179V80Z" fill="#2196F3"/>
    </g>
    <defs>
        <filter id="filter0_d_2_50" x="85" y="73.636" width="26" height="22.7279" filterUnits="userSpaceOnUse" color-interpolation-filters="sRGB">
            <feFlood flood-opacity="0" result="BackgroundImageFix"/>
            <feColorMatrix in="SourceAlpha" type="matrix" values="0 0 0 0 0 0 0 0 0 0 0 0 0 0 0 0 0 0 127 0" result="hardAlpha"/>
            <feOffset dy="4"/>
            <feGaussianBlur stdDeviation="2"/>
            <feComposite in2="hardAlpha" operator="out"/>
            <feColorMatrix type="matrix" values="0 0 0 0 0 0 0 0 0 0 0 0 0 0 0 0 0 0 0.25 0"/>
            <feBlend mode="normal" in2="BackgroundImageFix" result="effect1_dropShadow_2_50"/>
            <feBlend mode="normal" in="SourceGraphic" in2="effect1_dropShadow_2_50" result="shape"/>
        </filter>
        <filter id="filter1_d_2_50" x="86" y="59.636" width="26" height="22.7279" filterUnits="userSpaceOnUse" color-interpolation-filters="sRGB">
            <feFlood flood-opacity="0" result="BackgroundImageFix"/>
            <feColorMatrix in="SourceAlpha" type="matrix" values="0 0 0 0 0 0 0 0 0 0 0 0 0 0 0 0 0 0 127 0" result="hardAlpha"/>
            <feOffset dy="4"/>
            <feGaussianBlur stdDeviation="2"/>
            <feComposite in2="hardAlpha" operator="out"/>
            <feColorMatrix type="matrix" values="0 0 0 0 0 0 0 0 0 0 0 0 0 0 0 0 0 0 0.25 0"/>
            <feBlend mode="normal" in2="BackgroundImageFix" result="effect1_dropShadow_2_50"/>
            <feBlend mode="normal" in="SourceGraphic" in2="effect1_dropShadow_2_50" result="shape"/>
        </filter>
        <filter id="filter2_d_2_50" x="124" y="59.636" width="26" height="22.7279" filterUnits="userSpaceOnUse" color-interpolation-filters="sRGB">
            <feFlood flood-opacity="0" result="BackgroundImageFix"/>
            <feColorMatrix in="SourceAlpha" type="matrix" values="0 0 0 0 0 0 0 0 0 0 0 0 0 0 0 0 0 0 127 0" result="hardAlpha"/>
            <feOffset dy="4"/>
            <feGaussianBlur stdDeviation="2"/>
            <feComposite in2="hardAlpha" operator="out"/>
            <feColorMatrix type="matrix" values="0 0 0 0 0 0 0 0 0 0 0 0 0 0 0 0 0 0 0.25 0"/>
            <feBlend mode="normal" in2="BackgroundImageFix" result="effect1_dropShadow_2_50"/>
            <feBlend mode="normal" in="SourceGraphic" in2="effect1_dropShadow_2_50" result="shape"/>
        </filter>
        <filter id="filter3_d_2_50" x="158" y="59.636" width="26" height="22.7279" filterUnits="userSpaceOnUse" color-interpolation-filters="sRGB">
            <feFlood flood-opacity="0" result="BackgroundImageFix"/>
            <feColorMatrix in="SourceAlpha" type="matrix" values="0 0 0 0 0 0 0 0 0 0 0 0 0 0 0 0 0 0 127 0" result="hardAlpha"/>
            <feOffset dy="4"/>
            <feGaussianBlur stdDeviation="2"/>
            <feComposite in2="hardAlpha" operator="out"/>
            <feColorMatrix type="matrix" values="0 0 0 0 0 0 0 0 0 0 0 0 0 0 0 0 0 0 0.25 0"/>
            <feBlend mode="normal" in2="BackgroundImageFix" result="effect1_dropShadow_2_50"/>
            <feBlend mode="normal" in="SourceGraphic" in2="effect1_dropShadow_2_50" result="shape"/>
        </filter>
        <filter id="filter4_d_2_50" x="123" y="73.636" width="26" height="22.7279" filterUnits="userSpaceOnUse" color-interpolation-filters="sRGB">
            <feFlood flood-opacity="0" result="BackgroundImageFix"/>
            <feColorMatrix in="SourceAlpha" type="matrix" values="0 0 0 0 0 0 0 0 0 0 0 0 0 0 0 0 0 0 127 0" result="hardAlpha"/>
            <feOffset dy="4"/>
            <feGaussianBlur stdDeviation="2"/>
            <feComposite in2="hardAlpha" operator="out"/>
            <feColorMatrix type="matrix" values="0 0 0 0 0 0 0 0 0 0 0 0 0 0 0 0 0 0 0.25 0"/>
            <feBlend mode="normal" in2="BackgroundImageFix" result="effect1_dropShadow_2_50"/>
            <feBlend mode="normal" in="SourceGraphic" in2="effect1_dropShadow_2_50" result="shape"/>
        </filter>
        <filter id="filter5_d_2_50" x="157" y="73.636" width="26" height="22.7279" filterUnits="userSpaceOnUse" color-interpolation-filters="sRGB">
            <feFlood flood-opacity="0" result="BackgroundImageFix"/>
            <feColorMatrix in="SourceAlpha" type="matrix" values="0 0 0 0 0 0 0 0 0 0 0 0 0 0 0 0 0 0 127 0" result="hardAlpha"/>
            <feOffset dy="4"/>
            <feGaussianBlur stdDeviation="2"/>
            <feComposite in2="hardAlpha" operator="out"/>
            <feColorMatrix type="matrix" values="0 0 0 0 0 0 0 0 0 0 0 0 0 0 0 0 0 0 0.25 0"/>
            <feBlend mode="normal" in2="BackgroundImageFix" result="effect1_dropShadow_2_50"/>
            <feBlend mode="normal" in="SourceGraphic" in2="effect1_dropShadow_2_50" result="shape"/>
        </filter>
    </defs>
</svg>
