<svg width="256" height="149" viewBox="0 0 256 149" fill="none" xmlns="http://www.w3.org/2000/svg">
    <path d="M102 63C102 61.3431 103.343 60 105 60H129C130.657 60 132 61.3431 132 63V87C132 88.6569 130.657 90 129 90H105C103.343 90 102 88.6569 102 87V63Z" fill="#1D9873"/>
    <path d="M102 63C102 61.3431 103.343 60 105 60H129C130.657 60 132 61.3431 132 63V87C132 88.6569 130.657 90 129 90H105C103.343 90 102 88.6569 102 87V63Z" fill="#1D9873"/>
    <path d="M105 90H129C130.657 90 132 88.6569 132 87V63C132 61.3431 130.657 60 129 60H105C103.343 60 102 61.3431 102 63V87C102 88.6569 103.343 90 105 90Z" stroke="#1D9873"/>
    <path d="M138 63C138 61.3431 139.343 60 141 60H165C166.657 60 168 61.3431 168 63V87C168 88.6569 166.657 90 165 90H141C139.343 90 138 88.6569 138 87V63Z" fill="#1D9873"/>
    <path d="M138 63C138 61.3431 139.343 60 141 60H165C166.657 60 168 61.3431 168 63V87C168 88.6569 166.657 90 165 90H141C139.343 90 138 88.6569 138 87V63Z" fill="#1D9873"/>
    <path d="M141 90H165C166.657 90 168 88.6569 168 87V63C168 61.3431 166.657 60 165 60H141C139.343 60 138 61.3431 138 63V87C138 88.6569 139.343 90 141 90Z" stroke="#1D9873"/>
    <path d="M174 63C174 61.3431 175.343 60 177 60H201C202.657 60 204 61.3431 204 63V87C204 88.6569 202.657 90 201 90H177C175.343 90 174 88.6569 174 87V63Z" fill="#1D9873"/>
    <path d="M174 63C174 61.3431 175.343 60 177 60H201C202.657 60 204 61.3431 204 63V87C204 88.6569 202.657 90 201 90H177C175.343 90 174 88.6569 174 87V63Z" fill="#1D9873"/>
    <path d="M177 90H201C202.657 90 204 88.6569 204 87V63C204 61.3431 202.657 60 201 60H177C175.343 60 174 61.3431 174 63V87C174 88.6569 175.343 90 177 90Z" stroke="#1D9873"/>
    <path d="M66 63C66 61.3431 67.3431 60 69 60H93C94.6569 60 96 61.3431 96 63V87C96 88.6569 94.6569 90 93 90H69C67.3431 90 66 88.6569 66 87V63Z" fill="#F55246"/>
    <path d="M66 63C66 61.3431 67.3431 60 69 60H93C94.6569 60 96 61.3431 96 63V87C96 88.6569 94.6569 90 93 90H69C67.3431 90 66 88.6569 66 87V63Z" fill="#F55246"/>
    <path d="M69 90H93C94.6569 90 96 88.6569 96 87V63C96 61.3431 94.6569 60 93 60H69C67.3431 60 66 61.3431 66 63V87C66 88.6569 67.3431 90 69 90Z" stroke="#F55246"/>
    <g filter="url(#filter0_d_1_7)">
        <path d="M167.293 74.2929C166.902 74.6834 166.902 75.3166 167.293 75.7071L173.657 82.0711C174.047 82.4616 174.681 82.4616 175.071 82.0711C175.462 81.6805 175.462 81.0474 175.071 80.6569L169.414 75L175.071 69.3431C175.462 68.9526 175.462 68.3195 175.071 67.9289C174.681 67.5384 174.047 67.5384 173.657 67.9289L167.293 74.2929ZM185 74H168V76H185V74Z" fill="#2196F3"/>
    </g>
    <g filter="url(#filter1_d_1_7)">
        <path d="M131.293 74.2929C130.902 74.6834 130.902 75.3166 131.293 75.7071L137.657 82.0711C138.047 82.4616 138.681 82.4616 139.071 82.0711C139.462 81.6805 139.462 81.0474 139.071 80.6569L133.414 75L139.071 69.3431C139.462 68.9526 139.462 68.3195 139.071 67.9289C138.681 67.5384 138.047 67.5384 137.657 67.9289L131.293 74.2929ZM149 74H132V76H149V74Z" fill="#2196F3"/>
    </g>
    <g filter="url(#filter2_d_1_7)">
        <path d="M95.2929 74.2929C94.9024 74.6834 94.9024 75.3166 95.2929 75.7071L101.657 82.0711C102.047 82.4616 102.681 82.4616 103.071 82.0711C103.462 81.6805 103.462 81.0474 103.071 80.6569L97.4142 75L103.071 69.3431C103.462 68.9526 103.462 68.3195 103.071 67.9289C102.681 67.5384 102.047 67.5384 101.657 67.9289L95.2929 74.2929ZM113 74H96V76H113V74Z" fill="#2196F3"/>
    </g>
    <path d="M206 95L60 94" stroke="#2196F3" stroke-width="3" stroke-linecap="round"/>
    <path d="M206 56L60.0003 55.5202" stroke="#2196F3" stroke-width="3" stroke-linecap="round"/>
    <defs>
        <filter id="filter0_d_1_7" x="163" y="67.636" width="26" height="22.7279" filterUnits="userSpaceOnUse" color-interpolation-filters="sRGB">
            <feFlood flood-opacity="0" result="BackgroundImageFix"/>
            <feColorMatrix in="SourceAlpha" type="matrix" values="0 0 0 0 0 0 0 0 0 0 0 0 0 0 0 0 0 0 127 0" result="hardAlpha"/>
            <feOffset dy="4"/>
            <feGaussianBlur stdDeviation="2"/>
            <feComposite in2="hardAlpha" operator="out"/>
            <feColorMatrix type="matrix" values="0 0 0 0 0 0 0 0 0 0 0 0 0 0 0 0 0 0 0.25 0"/>
            <feBlend mode="normal" in2="BackgroundImageFix" result="effect1_dropShadow_1_7"/>
            <feBlend mode="normal" in="SourceGraphic" in2="effect1_dropShadow_1_7" result="shape"/>
        </filter>
        <filter id="filter1_d_1_7" x="127" y="67.636" width="26" height="22.7279" filterUnits="userSpaceOnUse" color-interpolation-filters="sRGB">
            <feFlood flood-opacity="0" result="BackgroundImageFix"/>
            <feColorMatrix in="SourceAlpha" type="matrix" values="0 0 0 0 0 0 0 0 0 0 0 0 0 0 0 0 0 0 127 0" result="hardAlpha"/>
            <feOffset dy="4"/>
            <feGaussianBlur stdDeviation="2"/>
            <feComposite in2="hardAlpha" operator="out"/>
            <feColorMatrix type="matrix" values="0 0 0 0 0 0 0 0 0 0 0 0 0 0 0 0 0 0 0.25 0"/>
            <feBlend mode="normal" in2="BackgroundImageFix" result="effect1_dropShadow_1_7"/>
            <feBlend mode="normal" in="SourceGraphic" in2="effect1_dropShadow_1_7" result="shape"/>
        </filter>
        <filter id="filter2_d_1_7" x="91" y="67.636" width="26" height="22.7279" filterUnits="userSpaceOnUse" color-interpolation-filters="sRGB">
            <feFlood flood-opacity="0" result="BackgroundImageFix"/>
            <feColorMatrix in="SourceAlpha" type="matrix" values="0 0 0 0 0 0 0 0 0 0 0 0 0 0 0 0 0 0 127 0" result="hardAlpha"/>
            <feOffset dy="4"/>
            <feGaussianBlur stdDeviation="2"/>
            <feComposite in2="hardAlpha" operator="out"/>
            <feColorMatrix type="matrix" values="0 0 0 0 0 0 0 0 0 0 0 0 0 0 0 0 0 0 0.25 0"/>
            <feBlend mode="normal" in2="BackgroundImageFix" result="effect1_dropShadow_1_7"/>
            <feBlend mode="normal" in="SourceGraphic" in2="effect1_dropShadow_1_7" result="shape"/>
        </filter>
    </defs>
</svg>
