<svg width="343" height="278" viewBox="0 0 343 278" fill="none" xmlns="http://www.w3.org/2000/svg">
<g clip-path="url(#clip0_130_956)">
<rect x="1" y="215" width="41" height="62" stroke="#A100FF" stroke-width="2"/>
<path d="M21.1335 269.358C19.3778 269.358 17.8097 269.055 16.429 268.45C15.0568 267.845 13.9702 267.006 13.169 265.932C12.3764 264.849 11.9503 263.597 11.8906 262.173H15.9048C15.956 262.949 16.2159 263.622 16.6847 264.193C17.1619 264.756 17.7841 265.19 18.5511 265.497C19.3182 265.804 20.1705 265.957 21.108 265.957C22.1392 265.957 23.0511 265.778 23.8438 265.42C24.6449 265.062 25.2713 264.564 25.723 263.925C26.1747 263.277 26.4006 262.531 26.4006 261.688C26.4006 260.81 26.1747 260.038 25.723 259.374C25.2798 258.7 24.6278 258.172 23.767 257.788C22.9148 257.405 21.8835 257.213 20.6733 257.213H18.4616V253.991H20.6733C21.6449 253.991 22.4972 253.817 23.2301 253.467C23.9716 253.118 24.5511 252.632 24.9688 252.01C25.3864 251.379 25.5952 250.642 25.5952 249.798C25.5952 248.989 25.4119 248.286 25.0455 247.689C24.6875 247.084 24.1761 246.611 23.5114 246.27C22.8551 245.929 22.0795 245.759 21.1847 245.759C20.3324 245.759 19.5355 245.916 18.794 246.232C18.0611 246.538 17.4645 246.982 17.0043 247.561C16.544 248.132 16.2969 248.818 16.2628 249.619H12.4403C12.483 248.205 12.9006 246.96 13.6932 245.886C14.4943 244.812 15.5511 243.973 16.8636 243.368C18.1761 242.763 19.6335 242.46 21.2358 242.46C22.9148 242.46 24.3636 242.788 25.5824 243.445C26.8097 244.092 27.7557 244.957 28.4205 246.04C29.0938 247.122 29.4261 248.307 29.4176 249.594C29.4261 251.06 29.017 252.304 28.1903 253.327C27.3722 254.349 26.2813 255.036 24.9176 255.385V255.589C26.6563 255.854 28.0028 256.544 28.9574 257.661C29.9205 258.777 30.3977 260.162 30.3892 261.815C30.3977 263.256 29.9972 264.547 29.1875 265.689C28.3864 266.831 27.2912 267.73 25.902 268.386C24.5128 269.034 22.9233 269.358 21.1335 269.358Z" fill="#A100FF"/>
<rect x="51" y="128" width="41" height="149" stroke="#A100FF" stroke-width="2"/>
<path d="M71.6591 269.358C70.4915 269.341 69.3409 269.128 68.2074 268.719C67.0824 268.31 66.0597 267.628 65.1392 266.673C64.2188 265.719 63.4815 264.436 62.9276 262.825C62.3821 261.214 62.1094 259.203 62.1094 256.791C62.1094 254.507 62.3352 252.479 62.7869 250.706C63.2472 248.933 63.9077 247.438 64.7685 246.219C65.6293 244.991 66.669 244.058 67.8878 243.419C69.1065 242.78 70.4744 242.46 71.9915 242.46C73.5511 242.46 74.9361 242.767 76.1463 243.381C77.3565 243.994 78.3366 244.842 79.0866 245.925C79.8452 247.007 80.3267 248.239 80.5312 249.619H76.6321C76.3679 248.528 75.8438 247.638 75.0597 246.947C74.2756 246.257 73.2528 245.912 71.9915 245.912C70.0739 245.912 68.5781 246.747 67.5043 248.418C66.4389 250.088 65.902 252.411 65.8935 255.385H66.0852C66.5369 254.643 67.0909 254.013 67.7472 253.493C68.4119 252.964 69.1534 252.56 69.9716 252.278C70.7983 251.989 71.6676 251.844 72.5795 251.844C74.0966 251.844 75.4688 252.214 76.696 252.956C77.9318 253.689 78.9162 254.703 79.6491 255.999C80.3821 257.294 80.7486 258.777 80.7486 260.447C80.7486 262.118 80.3693 263.631 79.6108 264.986C78.8608 266.341 77.804 267.415 76.4403 268.207C75.0767 268.991 73.483 269.375 71.6591 269.358ZM71.6463 266.034C72.652 266.034 73.5511 265.787 74.3438 265.293C75.1364 264.798 75.7628 264.134 76.223 263.298C76.6832 262.463 76.9134 261.53 76.9134 260.499C76.9134 259.493 76.6875 258.577 76.2358 257.75C75.7926 256.923 75.179 256.267 74.3949 255.781C73.6193 255.295 72.733 255.053 71.7358 255.053C70.9773 255.053 70.2741 255.197 69.6264 255.487C68.9872 255.777 68.4247 256.178 67.9389 256.689C67.4531 257.2 67.0696 257.788 66.7884 258.453C66.5156 259.109 66.3793 259.804 66.3793 260.537C66.3793 261.517 66.6051 262.425 67.0568 263.26C67.517 264.095 68.1435 264.768 68.9361 265.28C69.7372 265.783 70.6406 266.034 71.6463 266.034Z" fill="#A100FF"/>
<rect x="101" y="235" width="41" height="42" stroke="#A100FF" stroke-width="2"/>
<path d="M112.518 269V266.136L121.378 256.957C122.324 255.96 123.104 255.087 123.717 254.337C124.339 253.578 124.804 252.858 125.111 252.176C125.418 251.494 125.571 250.77 125.571 250.003C125.571 249.134 125.366 248.384 124.957 247.753C124.548 247.114 123.99 246.624 123.283 246.283C122.575 245.933 121.778 245.759 120.892 245.759C119.955 245.759 119.136 245.95 118.438 246.334C117.739 246.717 117.202 247.259 116.827 247.957C116.452 248.656 116.264 249.474 116.264 250.412H112.493C112.493 248.818 112.859 247.425 113.592 246.232C114.325 245.038 115.331 244.114 116.609 243.457C117.888 242.793 119.341 242.46 120.969 242.46C122.614 242.46 124.063 242.788 125.315 243.445C126.577 244.092 127.561 244.979 128.268 246.104C128.976 247.22 129.33 248.482 129.33 249.888C129.33 250.859 129.146 251.81 128.78 252.739C128.422 253.668 127.795 254.703 126.901 255.845C126.006 256.979 124.761 258.355 123.168 259.974L117.964 265.42V265.612H129.751V269H112.518Z" fill="#A100FF"/>
<rect x="151" y="153" width="41" height="124" stroke="#A100FF" stroke-width="2"/>
<path d="M171.161 269.358C169.558 269.358 168.118 269.051 166.839 268.438C165.57 267.815 164.555 266.963 163.797 265.881C163.038 264.798 162.634 263.562 162.582 262.173H166.418C166.511 263.298 167.01 264.223 167.913 264.947C168.817 265.672 169.899 266.034 171.161 266.034C172.166 266.034 173.057 265.804 173.832 265.344C174.616 264.875 175.23 264.232 175.673 263.413C176.125 262.595 176.351 261.662 176.351 260.614C176.351 259.548 176.121 258.598 175.661 257.763C175.2 256.928 174.565 256.271 173.756 255.794C172.955 255.317 172.034 255.074 170.994 255.065C170.202 255.065 169.405 255.202 168.604 255.474C167.803 255.747 167.155 256.105 166.661 256.548L163.043 256.011L164.513 242.818H178.908V246.206H167.798L166.967 253.531H167.121C167.632 253.037 168.31 252.624 169.153 252.291C170.006 251.959 170.918 251.793 171.889 251.793C173.483 251.793 174.902 252.172 176.146 252.93C177.399 253.689 178.384 254.724 179.099 256.037C179.824 257.341 180.182 258.841 180.173 260.537C180.182 262.233 179.798 263.746 179.023 265.075C178.256 266.405 177.19 267.453 175.827 268.22C174.472 268.979 172.916 269.358 171.161 269.358Z" fill="#A100FF"/>
<rect x="201" y="102" width="41" height="175" stroke="#A100FF" stroke-width="2"/>
<path d="M214.401 269L225.83 246.398V246.206H212.611V242.818H229.92V246.321L218.53 269H214.401Z" fill="#A100FF"/>
<rect x="251" y="29" width="41" height="248" stroke="#A100FF" stroke-width="2"/>
<path d="M271.224 242.46C272.392 242.469 273.543 242.682 274.676 243.099C275.81 243.517 276.832 244.199 277.744 245.145C278.665 246.091 279.398 247.369 279.943 248.98C280.497 250.582 280.778 252.577 280.787 254.963C280.787 257.256 280.557 259.297 280.097 261.087C279.636 262.868 278.976 264.372 278.115 265.599C277.263 266.827 276.227 267.76 275.009 268.399C273.79 269.038 272.418 269.358 270.892 269.358C269.332 269.358 267.947 269.051 266.737 268.438C265.527 267.824 264.543 266.976 263.784 265.893C263.026 264.803 262.553 263.55 262.365 262.135H266.264C266.52 263.26 267.04 264.172 267.824 264.871C268.616 265.561 269.639 265.906 270.892 265.906C272.81 265.906 274.305 265.071 275.379 263.401C276.453 261.722 276.994 259.378 277.003 256.369H276.798C276.355 257.102 275.801 257.733 275.136 258.261C274.48 258.79 273.743 259.199 272.925 259.489C272.107 259.778 271.233 259.923 270.304 259.923C268.795 259.923 267.423 259.553 266.188 258.811C264.952 258.07 263.967 257.051 263.234 255.756C262.501 254.46 262.135 252.982 262.135 251.32C262.135 249.666 262.51 248.166 263.26 246.82C264.018 245.473 265.075 244.408 266.43 243.624C267.794 242.831 269.392 242.443 271.224 242.46ZM271.237 245.784C270.24 245.784 269.341 246.031 268.54 246.526C267.747 247.011 267.121 247.672 266.661 248.507C266.2 249.334 265.97 250.254 265.97 251.268C265.97 252.283 266.192 253.203 266.635 254.03C267.087 254.848 267.7 255.5 268.476 255.986C269.26 256.463 270.155 256.702 271.161 256.702C271.911 256.702 272.609 256.557 273.257 256.267C273.905 255.977 274.472 255.577 274.957 255.065C275.443 254.545 275.822 253.957 276.095 253.301C276.368 252.645 276.504 251.955 276.504 251.23C276.504 250.267 276.274 249.372 275.814 248.545C275.362 247.719 274.74 247.054 273.947 246.551C273.155 246.04 272.251 245.784 271.237 245.784Z" fill="#A100FF"/>
<rect x="301" y="1" width="41" height="276" stroke="#A100FF" stroke-width="2"/>
<path d="M313.452 242.818V269H309.489V246.781H309.335L303.071 250.872V247.088L309.604 242.818H313.452ZM329.649 269.435C327.629 269.426 325.903 268.893 324.472 267.837C323.04 266.78 321.945 265.241 321.186 263.222C320.428 261.202 320.048 258.768 320.048 255.922C320.048 253.084 320.428 250.659 321.186 248.648C321.953 246.636 323.053 245.102 324.484 244.045C325.925 242.989 327.646 242.46 329.649 242.46C331.652 242.46 333.369 242.993 334.801 244.058C336.233 245.115 337.328 246.649 338.087 248.661C338.854 250.663 339.237 253.084 339.237 255.922C339.237 258.777 338.858 261.214 338.099 263.234C337.341 265.246 336.246 266.784 334.814 267.849C333.382 268.906 331.661 269.435 329.649 269.435ZM329.649 266.021C331.422 266.021 332.807 265.156 333.804 263.426C334.81 261.696 335.312 259.195 335.312 255.922C335.312 253.749 335.082 251.912 334.622 250.412C334.17 248.903 333.518 247.761 332.666 246.986C331.822 246.202 330.817 245.81 329.649 245.81C327.885 245.81 326.5 246.679 325.494 248.418C324.489 250.156 323.982 252.658 323.973 255.922C323.973 258.104 324.199 259.949 324.651 261.457C325.111 262.957 325.763 264.095 326.607 264.871C327.45 265.638 328.464 266.021 329.649 266.021Z" fill="#A100FF"/>
</g>
<defs>
<clipPath id="clip0_130_956">
<rect width="343" height="278" fill="white"/>
</clipPath>
</defs>
</svg>
