<svg width="256" height="149" viewBox="0 0 256 149" fill="none" xmlns="http://www.w3.org/2000/svg">
    <path d="M113 44C113 42.3431 114.343 41 116 41H140C141.657 41 143 42.3431 143 44V68C143 69.6569 141.657 71 140 71H116C114.343 71 113 69.6569 113 68V44Z" fill="#1D9873"/>
    <path d="M113 44C113 42.3431 114.343 41 116 41H140C141.657 41 143 42.3431 143 44V68C143 69.6569 141.657 71 140 71H116C114.343 71 113 69.6569 113 68V44Z" fill="#1D9873"/>
    <path d="M116 71H140C141.657 71 143 69.6569 143 68V44C143 42.3431 141.657 41 140 41H116C114.343 41 113 42.3431 113 44V68C113 69.6569 114.343 71 116 71Z" stroke="#1D9873"/>
    <path d="M113 80C113 78.3431 114.343 77 116 77H140C141.657 77 143 78.3431 143 80V104C143 105.657 141.657 107 140 107H116C114.343 107 113 105.657 113 104V80Z" fill="#1D9873"/>
    <path d="M113 80C113 78.3431 114.343 77 116 77H140C141.657 77 143 78.3431 143 80V104C143 105.657 141.657 107 140 107H116C114.343 107 113 105.657 113 104V80Z" fill="#1D9873"/>
    <path d="M116 107H140C141.657 107 143 105.657 143 104V80C143 78.3431 141.657 77 140 77H116C114.343 77 113 78.3431 113 80V104C113 105.657 114.343 107 116 107Z" stroke="#1D9873"/>
    <path d="M113 116C113 114.343 114.343 113 116 113H140C141.657 113 143 114.343 143 116V140C143 141.657 141.657 143 140 143H116C114.343 143 113 141.657 113 140V116Z" fill="#1D9873"/>
    <path d="M113 116C113 114.343 114.343 113 116 113H140C141.657 113 143 114.343 143 116V140C143 141.657 141.657 143 140 143H116C114.343 143 113 141.657 113 140V116Z" fill="#1D9873"/>
    <path d="M116 143H140C141.657 143 143 141.657 143 140V116C143 114.343 141.657 113 140 113H116C114.343 113 113 114.343 113 116V140C113 141.657 114.343 143 116 143Z" stroke="#1D9873"/>
    <path d="M113 8C113 6.34315 114.343 5 116 5H140C141.657 5 143 6.34315 143 8V32C143 33.6569 141.657 35 140 35H116C114.343 35 113 33.6569 113 32V8Z" fill="#F55246"/>
    <path d="M113 8C113 6.34315 114.343 5 116 5H140C141.657 5 143 6.34315 143 8V32C143 33.6569 141.657 35 140 35H116C114.343 35 113 33.6569 113 32V8Z" fill="#F55246"/>
    <path d="M116 35H140C141.657 35 143 33.6569 143 32V8C143 6.34315 141.657 5 140 5H116C114.343 5 113 6.34315 113 8V32C113 33.6569 114.343 35 116 35Z" stroke="#F55246"/>
    <g filter="url(#filter0_d_1_2)">
        <path d="M104.707 20.7071C105.098 20.3166 105.098 19.6834 104.707 19.2929L98.3431 12.9289C97.9526 12.5384 97.3195 12.5384 96.9289 12.9289C96.5384 13.3195 96.5384 13.9526 96.9289 14.3431L102.586 20L96.9289 25.6569C96.5384 26.0474 96.5384 26.6805 96.9289 27.0711C97.3195 27.4616 97.9526 27.4616 98.3431 27.0711L104.707 20.7071ZM80 21L104 21L104 19L80 19L80 21Z" fill="#2196F3"/>
    </g>
    <path d="M109.5 3L110 147" stroke="#2196F3" stroke-width="3" stroke-linecap="round"/>
    <path d="M146 3V147" stroke="#339AF0" stroke-width="3" stroke-linecap="round"/>
    <path d="M110 147L146 147" stroke="#2196F3" stroke-width="3" stroke-linecap="round"/>
    <defs>
        <filter id="filter0_d_1_2" x="76" y="12.636" width="33" height="22.7279" filterUnits="userSpaceOnUse" color-interpolation-filters="sRGB">
            <feFlood flood-opacity="0" result="BackgroundImageFix"/>
            <feColorMatrix in="SourceAlpha" type="matrix" values="0 0 0 0 0 0 0 0 0 0 0 0 0 0 0 0 0 0 127 0" result="hardAlpha"/>
            <feOffset dy="4"/>
            <feGaussianBlur stdDeviation="2"/>
            <feComposite in2="hardAlpha" operator="out"/>
            <feColorMatrix type="matrix" values="0 0 0 0 0 0 0 0 0 0 0 0 0 0 0 0 0 0 0.25 0"/>
            <feBlend mode="normal" in2="BackgroundImageFix" result="effect1_dropShadow_1_2"/>
            <feBlend mode="normal" in="SourceGraphic" in2="effect1_dropShadow_1_2" result="shape"/>
        </filter>
    </defs>
</svg>
