<svg width="653" height="620" viewBox="0 0 653 620" fill="none" xmlns="http://www.w3.org/2000/svg">
<rect x="327" y="30" width="68" height="68" rx="34" stroke="#A100FF" stroke-width="2"/>
<path d="M360.865 77.358C359.033 77.358 357.413 77.0426 356.007 76.4119C354.609 75.7812 353.514 74.9119 352.722 73.804C351.929 72.696 351.537 71.4347 351.545 70.0199C351.537 68.9119 351.763 67.8935 352.223 66.9645C352.692 66.027 353.327 65.2472 354.128 64.625C354.929 63.9943 355.824 63.5938 356.812 63.4233V63.2699C355.509 62.9545 354.464 62.2557 353.68 61.1733C352.896 60.0909 352.509 58.8466 352.517 57.4403C352.509 56.1023 352.862 54.9091 353.578 53.8608C354.303 52.804 355.295 51.973 356.557 51.3679C357.818 50.7628 359.254 50.4602 360.865 50.4602C362.459 50.4602 363.882 50.767 365.135 51.3807C366.396 51.9858 367.389 52.8168 368.114 53.8736C368.838 54.9219 369.205 56.1108 369.213 57.4403C369.205 58.8466 368.804 60.0909 368.011 61.1733C367.219 62.2557 366.188 62.9545 364.918 63.2699V63.4233C365.898 63.5938 366.78 63.9943 367.564 64.625C368.357 65.2472 368.987 66.027 369.456 66.9645C369.933 67.8935 370.176 68.9119 370.185 70.0199C370.176 71.4347 369.776 72.696 368.983 73.804C368.19 74.9119 367.091 75.7812 365.685 76.4119C364.287 77.0426 362.68 77.358 360.865 77.358ZM360.865 74.1236C361.947 74.1236 362.885 73.9446 363.678 73.5866C364.47 73.2202 365.084 72.7131 365.518 72.0653C365.953 71.4091 366.175 70.642 366.183 69.7642C366.175 68.8523 365.936 68.0469 365.467 67.348C365.007 66.6491 364.381 66.0994 363.588 65.6989C362.795 65.2983 361.888 65.098 360.865 65.098C359.834 65.098 358.918 65.2983 358.116 65.6989C357.315 66.0994 356.685 66.6491 356.224 67.348C355.764 68.0469 355.538 68.8523 355.547 69.7642C355.538 70.642 355.747 71.4091 356.173 72.0653C356.608 72.7131 357.226 73.2202 358.027 73.5866C358.828 73.9446 359.774 74.1236 360.865 74.1236ZM360.865 61.9403C361.734 61.9403 362.506 61.7656 363.179 61.4162C363.852 61.0668 364.381 60.581 364.764 59.9588C365.156 59.3366 365.357 58.608 365.365 57.7727C365.357 56.9545 365.161 56.2386 364.777 55.625C364.402 55.0114 363.878 54.5384 363.205 54.206C362.531 53.8651 361.751 53.6946 360.865 53.6946C359.962 53.6946 359.169 53.8651 358.487 54.206C357.814 54.5384 357.29 55.0114 356.915 55.625C356.54 56.2386 356.357 56.9545 356.365 57.7727C356.357 58.608 356.544 59.3366 356.928 59.9588C357.311 60.581 357.839 61.0668 358.513 61.4162C359.195 61.7656 359.979 61.9403 360.865 61.9403Z" fill="#A100FF"/>
<rect x="23" y="348" width="68" height="68" rx="34" stroke="#A100FF" stroke-width="2"/>
<path d="M48.0185 395V392.136L56.8778 382.957C57.8239 381.96 58.6037 381.087 59.2173 380.337C59.8395 379.578 60.304 378.858 60.6108 378.176C60.9176 377.494 61.071 376.77 61.071 376.003C61.071 375.134 60.8665 374.384 60.4574 373.753C60.0483 373.114 59.4901 372.624 58.7827 372.283C58.0753 371.933 57.2784 371.759 56.392 371.759C55.4545 371.759 54.6364 371.95 53.9375 372.334C53.2386 372.717 52.7017 373.259 52.3267 373.957C51.9517 374.656 51.7642 375.474 51.7642 376.412H47.9929C47.9929 374.818 48.3594 373.425 49.0923 372.232C49.8253 371.038 50.831 370.114 52.1094 369.457C53.3878 368.793 54.8409 368.46 56.4688 368.46C58.1136 368.46 59.5625 368.788 60.8153 369.445C62.0767 370.092 63.0611 370.979 63.7685 372.104C64.4759 373.22 64.8295 374.482 64.8295 375.888C64.8295 376.859 64.6463 377.81 64.2798 378.739C63.9219 379.668 63.2955 380.703 62.4006 381.845C61.5057 382.979 60.2614 384.355 58.6676 385.974L53.4645 391.42V391.612H65.2514V395H48.0185Z" fill="#A100FF"/>
<rect x="163" y="348" width="68" height="68" rx="34" stroke="#A100FF" stroke-width="2"/>
<path d="M196.661 395.358C195.058 395.358 193.618 395.051 192.339 394.438C191.07 393.815 190.055 392.963 189.297 391.881C188.538 390.798 188.134 389.562 188.082 388.173H191.918C192.011 389.298 192.51 390.223 193.413 390.947C194.317 391.672 195.399 392.034 196.661 392.034C197.666 392.034 198.557 391.804 199.332 391.344C200.116 390.875 200.73 390.232 201.173 389.413C201.625 388.595 201.851 387.662 201.851 386.614C201.851 385.548 201.621 384.598 201.161 383.763C200.7 382.928 200.065 382.271 199.256 381.794C198.455 381.317 197.534 381.074 196.494 381.065C195.702 381.065 194.905 381.202 194.104 381.474C193.303 381.747 192.655 382.105 192.161 382.548L188.543 382.011L190.013 368.818H204.408V372.206H193.298L192.467 379.531H192.621C193.132 379.037 193.81 378.624 194.653 378.291C195.506 377.959 196.418 377.793 197.389 377.793C198.983 377.793 200.402 378.172 201.646 378.93C202.899 379.689 203.884 380.724 204.599 382.037C205.324 383.341 205.682 384.841 205.673 386.537C205.682 388.233 205.298 389.746 204.523 391.075C203.756 392.405 202.69 393.453 201.327 394.22C199.972 394.979 198.416 395.358 196.661 395.358Z" fill="#A100FF"/>
<rect x="93" y="444" width="68" height="68" rx="34" stroke="#A100FF" stroke-width="2"/>
<path d="M126.634 491.358C124.878 491.358 123.31 491.055 121.929 490.45C120.557 489.845 119.47 489.006 118.669 487.932C117.876 486.849 117.45 485.597 117.391 484.173H121.405C121.456 484.949 121.716 485.622 122.185 486.193C122.662 486.756 123.284 487.19 124.051 487.497C124.818 487.804 125.67 487.957 126.608 487.957C127.639 487.957 128.551 487.778 129.344 487.42C130.145 487.062 130.771 486.564 131.223 485.925C131.675 485.277 131.901 484.531 131.901 483.688C131.901 482.81 131.675 482.038 131.223 481.374C130.78 480.7 130.128 480.172 129.267 479.788C128.415 479.405 127.384 479.213 126.173 479.213H123.962V475.991H126.173C127.145 475.991 127.997 475.817 128.73 475.467C129.472 475.118 130.051 474.632 130.469 474.01C130.886 473.379 131.095 472.642 131.095 471.798C131.095 470.989 130.912 470.286 130.545 469.689C130.188 469.084 129.676 468.611 129.011 468.27C128.355 467.929 127.58 467.759 126.685 467.759C125.832 467.759 125.036 467.916 124.294 468.232C123.561 468.538 122.964 468.982 122.504 469.561C122.044 470.132 121.797 470.818 121.763 471.619H117.94C117.983 470.205 118.401 468.96 119.193 467.886C119.994 466.812 121.051 465.973 122.364 465.368C123.676 464.763 125.134 464.46 126.736 464.46C128.415 464.46 129.864 464.788 131.082 465.445C132.31 466.092 133.256 466.957 133.92 468.04C134.594 469.122 134.926 470.307 134.918 471.594C134.926 473.06 134.517 474.304 133.69 475.327C132.872 476.349 131.781 477.036 130.418 477.385V477.589C132.156 477.854 133.503 478.544 134.457 479.661C135.42 480.777 135.898 482.162 135.889 483.815C135.898 485.256 135.497 486.547 134.688 487.689C133.886 488.831 132.791 489.73 131.402 490.386C130.013 491.034 128.423 491.358 126.634 491.358Z" fill="#A100FF"/>
<rect x="163" y="541" width="68" height="68" rx="34" stroke="#A100FF" stroke-width="2"/>
<path d="M186.969 582.886V579.69L198.283 561.818H200.801V566.523H199.203L191.111 579.332V579.537H206.618V582.886H186.969ZM199.382 588V581.915L199.408 580.457V561.818H203.153V588H199.382Z" fill="#A100FF"/>
<rect x="504" y="128" width="68" height="68" rx="34" stroke="#A100FF" stroke-width="2"/>
<path opacity="0.9" d="M537.724 148.46C538.892 148.469 540.043 148.682 541.176 149.099C542.31 149.517 543.332 150.199 544.244 151.145C545.165 152.091 545.898 153.369 546.443 154.98C546.997 156.582 547.278 158.577 547.287 160.963C547.287 163.256 547.057 165.297 546.597 167.087C546.136 168.868 545.476 170.372 544.615 171.599C543.763 172.827 542.727 173.76 541.509 174.399C540.29 175.038 538.918 175.358 537.392 175.358C535.832 175.358 534.447 175.051 533.237 174.438C532.027 173.824 531.043 172.976 530.284 171.893C529.526 170.803 529.053 169.55 528.865 168.135H532.764C533.02 169.26 533.54 170.172 534.324 170.871C535.116 171.561 536.139 171.906 537.392 171.906C539.31 171.906 540.805 171.071 541.879 169.401C542.953 167.722 543.494 165.378 543.503 162.369H543.298C542.855 163.102 542.301 163.733 541.636 164.261C540.98 164.79 540.243 165.199 539.425 165.489C538.607 165.778 537.733 165.923 536.804 165.923C535.295 165.923 533.923 165.553 532.688 164.811C531.452 164.07 530.467 163.051 529.734 161.756C529.001 160.46 528.635 158.982 528.635 157.32C528.635 155.666 529.01 154.166 529.76 152.82C530.518 151.473 531.575 150.408 532.93 149.624C534.294 148.831 535.892 148.443 537.724 148.46ZM537.737 151.784C536.74 151.784 535.841 152.031 535.04 152.526C534.247 153.011 533.621 153.672 533.161 154.507C532.7 155.334 532.47 156.254 532.47 157.268C532.47 158.283 532.692 159.203 533.135 160.03C533.587 160.848 534.2 161.5 534.976 161.986C535.76 162.463 536.655 162.702 537.661 162.702C538.411 162.702 539.109 162.557 539.757 162.267C540.405 161.977 540.972 161.577 541.457 161.065C541.943 160.545 542.322 159.957 542.595 159.301C542.868 158.645 543.004 157.955 543.004 157.23C543.004 156.267 542.774 155.372 542.314 154.545C541.862 153.719 541.24 153.054 540.447 152.551C539.655 152.04 538.751 151.784 537.737 151.784Z" fill="#A100FF"/>
<rect x="574" y="224" width="68" height="68" rx="34" stroke="#A100FF" stroke-width="2"/>
<path d="M599.952 244.818V271H595.989V248.781H595.835L589.571 252.872V249.088L596.104 244.818H599.952ZM616.149 271.358C614.393 271.358 612.825 271.055 611.445 270.45C610.072 269.845 608.986 269.006 608.185 267.932C607.392 266.849 606.966 265.597 606.906 264.173H610.92C610.972 264.949 611.232 265.622 611.7 266.193C612.178 266.756 612.8 267.19 613.567 267.497C614.334 267.804 615.186 267.957 616.124 267.957C617.155 267.957 618.067 267.778 618.859 267.42C619.661 267.062 620.287 266.564 620.739 265.925C621.19 265.277 621.416 264.531 621.416 263.688C621.416 262.81 621.19 262.038 620.739 261.374C620.295 260.7 619.643 260.172 618.783 259.788C617.93 259.405 616.899 259.213 615.689 259.213H613.477V255.991H615.689C616.661 255.991 617.513 255.817 618.246 255.467C618.987 255.118 619.567 254.632 619.984 254.01C620.402 253.379 620.611 252.642 620.611 251.798C620.611 250.989 620.428 250.286 620.061 249.689C619.703 249.084 619.192 248.611 618.527 248.27C617.871 247.929 617.095 247.759 616.2 247.759C615.348 247.759 614.551 247.916 613.81 248.232C613.077 248.538 612.48 248.982 612.02 249.561C611.56 250.132 611.313 250.818 611.278 251.619H607.456C607.499 250.205 607.916 248.96 608.709 247.886C609.51 246.812 610.567 245.973 611.879 245.368C613.192 244.763 614.649 244.46 616.251 244.46C617.93 244.46 619.379 244.788 620.598 245.445C621.825 246.092 622.771 246.957 623.436 248.04C624.109 249.122 624.442 250.307 624.433 251.594C624.442 253.06 624.033 254.304 623.206 255.327C622.388 256.349 621.297 257.036 619.933 257.385V257.589C621.672 257.854 623.018 258.544 623.973 259.661C624.936 260.777 625.413 262.162 625.405 263.815C625.413 265.256 625.013 266.547 624.203 267.689C623.402 268.831 622.307 269.73 620.918 270.386C619.528 271.034 617.939 271.358 616.149 271.358Z" fill="#A100FF"/>
<rect x="163" y="128" width="68" height="68" rx="34" stroke="#A100FF" stroke-width="2"/>
<path opacity="0.6" d="M197.159 175.358C195.991 175.341 194.841 175.128 193.707 174.719C192.582 174.31 191.56 173.628 190.639 172.673C189.719 171.719 188.982 170.436 188.428 168.825C187.882 167.214 187.609 165.203 187.609 162.791C187.609 160.507 187.835 158.479 188.287 156.706C188.747 154.933 189.408 153.438 190.268 152.219C191.129 150.991 192.169 150.058 193.388 149.419C194.607 148.78 195.974 148.46 197.491 148.46C199.051 148.46 200.436 148.767 201.646 149.381C202.857 149.994 203.837 150.842 204.587 151.925C205.345 153.007 205.827 154.239 206.031 155.619H202.132C201.868 154.528 201.344 153.638 200.56 152.947C199.776 152.257 198.753 151.912 197.491 151.912C195.574 151.912 194.078 152.747 193.004 154.418C191.939 156.088 191.402 158.411 191.393 161.385H191.585C192.037 160.643 192.591 160.013 193.247 159.493C193.912 158.964 194.653 158.56 195.472 158.278C196.298 157.989 197.168 157.844 198.08 157.844C199.597 157.844 200.969 158.214 202.196 158.956C203.432 159.689 204.416 160.703 205.149 161.999C205.882 163.294 206.249 164.777 206.249 166.447C206.249 168.118 205.869 169.631 205.111 170.986C204.361 172.341 203.304 173.415 201.94 174.207C200.577 174.991 198.983 175.375 197.159 175.358ZM197.146 172.034C198.152 172.034 199.051 171.787 199.844 171.293C200.636 170.798 201.263 170.134 201.723 169.298C202.183 168.463 202.413 167.53 202.413 166.499C202.413 165.493 202.188 164.577 201.736 163.75C201.293 162.923 200.679 162.267 199.895 161.781C199.119 161.295 198.233 161.053 197.236 161.053C196.477 161.053 195.774 161.197 195.126 161.487C194.487 161.777 193.925 162.178 193.439 162.689C192.953 163.2 192.57 163.788 192.288 164.453C192.016 165.109 191.879 165.804 191.879 166.537C191.879 167.517 192.105 168.425 192.557 169.26C193.017 170.095 193.643 170.768 194.436 171.28C195.237 171.783 196.141 172.034 197.146 172.034Z" fill="#A100FF"/>
<rect x="93" y="224" width="68" height="68" rx="34" stroke="#A100FF" stroke-width="2"/>
<path opacity="0.6" d="M118.018 271V268.136L126.878 258.957C127.824 257.96 128.604 257.087 129.217 256.337C129.839 255.578 130.304 254.858 130.611 254.176C130.918 253.494 131.071 252.77 131.071 252.003C131.071 251.134 130.866 250.384 130.457 249.753C130.048 249.114 129.49 248.624 128.783 248.283C128.075 247.933 127.278 247.759 126.392 247.759C125.455 247.759 124.636 247.95 123.938 248.334C123.239 248.717 122.702 249.259 122.327 249.957C121.952 250.656 121.764 251.474 121.764 252.412H117.993C117.993 250.818 118.359 249.425 119.092 248.232C119.825 247.038 120.831 246.114 122.109 245.457C123.388 244.793 124.841 244.46 126.469 244.46C128.114 244.46 129.563 244.788 130.815 245.445C132.077 246.092 133.061 246.979 133.768 248.104C134.476 249.22 134.83 250.482 134.83 251.888C134.83 252.859 134.646 253.81 134.28 254.739C133.922 255.668 133.295 256.703 132.401 257.845C131.506 258.979 130.261 260.355 128.668 261.974L123.464 267.42V267.612H135.251V271H118.018Z" fill="#A100FF"/>
<rect x="504" y="335" width="68" height="68" rx="34" stroke="#A100FF" stroke-width="2"/>
<path d="M532.952 355.818V382H528.989V359.781H528.835L522.571 363.872V360.088L529.104 355.818H532.952ZM549.967 355.818V382H546.004V359.781H545.851L539.587 363.872V360.088L546.119 355.818H549.967Z" fill="#A100FF"/>
<rect x="410" y="444" width="68" height="68" rx="34" stroke="#A100FF" stroke-width="2"/>
<path d="M435.952 464.818V491H431.989V468.781H431.835L425.571 472.872V469.088L432.104 464.818H435.952ZM452.149 491.435C450.129 491.426 448.403 490.893 446.972 489.837C445.54 488.78 444.445 487.241 443.686 485.222C442.928 483.202 442.548 480.768 442.548 477.922C442.548 475.084 442.928 472.659 443.686 470.648C444.453 468.636 445.553 467.102 446.984 466.045C448.425 464.989 450.146 464.46 452.149 464.46C454.152 464.46 455.869 464.993 457.301 466.058C458.733 467.115 459.828 468.649 460.587 470.661C461.354 472.663 461.737 475.084 461.737 477.922C461.737 480.777 461.358 483.214 460.599 485.234C459.841 487.246 458.746 488.784 457.314 489.849C455.882 490.906 454.161 491.435 452.149 491.435ZM452.149 488.021C453.922 488.021 455.307 487.156 456.304 485.426C457.31 483.696 457.812 481.195 457.812 477.922C457.812 475.749 457.582 473.912 457.122 472.412C456.67 470.903 456.018 469.761 455.166 468.986C454.322 468.202 453.317 467.81 452.149 467.81C450.385 467.81 449 468.679 447.994 470.418C446.989 472.156 446.482 474.658 446.473 477.922C446.473 480.104 446.699 481.949 447.151 483.457C447.611 484.957 448.263 486.095 449.107 486.871C449.95 487.638 450.964 488.021 452.149 488.021Z" fill="#A100FF"/>
<path d="M174.941 192.441L150.44 234.941M330.729 86.8491L229.94 140.441M110.44 292.941L72.939 355.941M154.439 285.941L185.44 349.941M179.94 414.441L150.441 454.941M150.441 508.941L174.941 550.441M392.941 86.8492L507.941 144.941M563.941 192.441L590.442 228.941M590.442 294.941L556.942 341.941M518.942 400.441L464.943 449.44" stroke="#F9FFB4"/>
</svg>
